<?xml version="1.0" encoding="UTF-8" standalone="no"?>
<!DOCTYPE svg PUBLIC "-//W3C//DTD SVG 1.1//EN" "http://www.w3.org/Graphics/SVG/1.1/DTD/svg11.dtd">
<svg width="100%" height="100%" viewBox="0 0 64 64" version="1.1" xmlns="http://www.w3.org/2000/svg" xmlns:xlink="http://www.w3.org/1999/xlink" xml:space="preserve" xmlns:serif="http://www.serif.com/" style="fill-rule:evenodd;clip-rule:evenodd;stroke-linejoin:round;stroke-miterlimit:2;">
    <g>
        <g>
            <path d="M32,0C14.4,0 0,14.4 0,32C0,49.6 14.4,64 32,64C49.6,64 64,49.6 64,32C64,14.4 49.6,0 32,0ZM49.1,52.9C45.2,52.2 40.1,50.7 37.8,49.5C36.1,48.6 30.7,42.3 28.8,42.3C26,42.4 22.9,44.3 22.3,47.4C22,48.8 24.3,52.5 24.7,53.7C25.2,55.1 25.3,56.6 25.1,58.1C17.2,56 10.6,50.4 7.3,43.1C10.7,42.7 15.4,41.4 15.1,40C14.7,38 14.1,35.9 15.7,34.2C16.8,33.1 18.8,33.2 20.2,33.2C21.3,33.2 22.5,33 23.4,32.3C23.9,31.9 28.5,25.8 28.7,25.2C28.9,24.6 28.7,23.7 28.6,23.1C28.3,21.7 22.8,17.5 22.2,17.3C21.7,17.1 19.7,19.4 18.8,20.1C17.5,21.2 12.6,19.2 9.3,17.3C14.2,9.9 22.5,5 32,5C33.2,5 34.4,5.1 35.6,5.2C35.7,5.9 35.8,6.6 36,7.6C36.6,9.7 41.3,14.9 42.6,15.3C44,15.8 47.3,15 48.7,15.6C50,16.2 47.1,23.3 45.7,24.7C43.9,26.6 46.5,36.9 48.9,37.5C50.9,38 53,37.4 55.1,37.5C56.1,37.5 57.2,38.1 58.1,39C56.6,44.5 53.4,49.3 49.1,52.9Z" style="fill:rgb(0,155,216);fill-rule:nonzero;"/>
        </g>
    </g>
</svg>
