<svg width="36" height="36" viewBox="0 0 36 36" fill="none" xmlns="http://www.w3.org/2000/svg">
<path d="M18 0C8.1 0 0 8.1 0 18C0 27.9 8.1 36 18 36C27.9 36 36 27.9 36 18C36 8.1 27.9 0 18 0ZM27.6187 29.7563C25.425 29.3625 22.5562 28.5187 21.2625 27.8438C20.3062 27.3375 17.2687 23.7937 16.2 23.7937C14.625 23.85 12.8812 24.9188 12.5437 26.6625C12.375 27.45 13.6688 29.5312 13.8938 30.2063C14.175 30.9937 14.2312 31.8375 14.1188 32.6812C9.675 31.5 5.9625 28.35 4.10625 24.2437C6.01875 24.0187 8.6625 23.2875 8.49375 22.5C8.26875 21.375 7.93125 20.1938 8.83125 19.2375C9.45 18.6187 10.575 18.675 11.3625 18.675C11.9813 18.675 12.6562 18.5625 13.1625 18.1687C13.4437 17.9438 16.0312 14.5125 16.1438 14.175C16.2563 13.8375 16.1438 13.3313 16.0875 12.9938C15.9187 12.2063 12.825 9.84375 12.4875 9.73125C12.2063 9.61875 11.0812 10.9125 10.575 11.3063C9.84375 11.925 7.0875 10.8 5.23125 9.73125C7.9875 5.56875 12.6562 2.8125 18 2.8125C18.675 2.8125 19.35 2.86875 20.025 2.925C20.0812 3.31875 20.1375 3.7125 20.25 4.275C20.5875 5.45625 23.2312 8.38125 23.9625 8.60625C24.75 8.8875 26.6063 8.4375 27.3938 8.775C28.125 9.1125 26.4937 13.1063 25.7063 13.8938C24.6938 14.9625 26.1562 20.7563 27.5063 21.0938C28.6313 21.375 29.8125 21.0375 30.9937 21.0938C31.5562 21.0938 32.175 21.4312 32.6812 21.9375C31.8375 25.0312 30.0375 27.7313 27.6187 29.7563Z" fill="#009BD8"/>
</svg>
