<svg version="1.2" baseProfile="tiny-ps" xmlns="http://www.w3.org/2000/svg" viewBox="0 0 36 35" width="36" height="36">
	<title>icons8-github 1-svg</title>
	<defs>
		<clipPath clipPathUnits="userSpaceOnUse" id="cp1">
			<path d="M0 -1L36 -1L36 35L0 35L0 -1Z" />
		</clipPath>
	</defs>
	<style>
		tspan { white-space:pre }
		.shp0 { fill: #009bd8 }
	</style>
	<g id="Clip-Path" clip-path="url(#cp1)">
		<g id="Layer">
			<path id="Layer" class="shp0" d="M15.95 -0.42C7.67 0.48 1.01 7.14 0.11 15.23C-0.79 23.7 4.07 31.26 11.45 34.13C11.99 34.31 12.53 33.95 12.53 33.23L12.53 30.36C12.53 30.36 11.81 30.54 10.91 30.54C8.39 30.54 7.31 28.38 7.13 27.11C6.95 26.39 6.59 25.86 6.05 25.32C5.51 25.14 5.33 25.14 5.33 24.95C5.33 24.59 5.87 24.59 6.05 24.59C7.13 24.59 8.03 25.86 8.39 26.39C9.29 27.84 10.37 28.2 10.91 28.2C11.63 28.2 12.17 28.02 12.53 27.84C12.71 26.57 13.25 25.32 14.33 24.59C10.19 23.7 7.13 21.36 7.13 17.39C7.13 15.41 8.03 13.44 9.29 11.99C9.11 11.63 8.93 10.73 8.93 9.47C8.93 8.76 8.93 7.68 9.47 6.6C9.47 6.6 11.99 6.6 14.51 8.94C15.41 8.58 16.67 8.4 17.93 8.4C19.19 8.4 20.45 8.58 21.53 8.94C23.87 6.6 26.57 6.6 26.57 6.6C26.93 7.68 26.93 8.76 26.93 9.47C26.93 10.91 26.75 11.63 26.57 11.99C27.83 13.44 28.73 15.23 28.73 17.39C28.73 21.36 25.67 23.7 21.53 24.59C22.61 25.5 23.33 27.11 23.33 28.73L23.33 33.41C23.33 33.95 23.87 34.49 24.59 34.31C31.25 31.62 35.93 25.14 35.93 17.57C35.93 6.78 26.75 -1.68 15.95 -0.42Z" />
		</g>
	</g>
</svg>