<?xml version="1.0" encoding="UTF-8" standalone="no"?>
<!DOCTYPE svg PUBLIC "-//W3C//DTD SVG 1.1//EN" "http://www.w3.org/Graphics/SVG/1.1/DTD/svg11.dtd">
<svg width="100%" height="100%" viewBox="0 0 64 64" version="1.1" xmlns="http://www.w3.org/2000/svg" xmlns:xlink="http://www.w3.org/1999/xlink" xml:space="preserve" xmlns:serif="http://www.serif.com/" style="fill-rule:evenodd;clip-rule:evenodd;stroke-linejoin:round;stroke-miterlimit:2;">
    <g>
        <g>
            <path d="M32,0C49.7,0 64,14.3 64,32C64,49.7 49.7,64 32,64C14.3,64 0,49.7 0,32C0,14.3 14.3,0 32,0Z" style="fill:rgb(0,155,216);fill-rule:nonzero;"/>
        </g>
        <g>
            <rect x="16.6" y="25.3" width="7.1" height="22.7" style="fill:white;"/>
        </g>
        <g>
            <path d="M20.1,22.2C17.8,22.2 16,20.4 16,18.1C16,15.8 17.8,14 20.1,14C22.4,14 24.2,15.8 24.2,18.1C24.2,20.4 22.3,22.2 20.1,22.2Z" style="fill:white;fill-rule:nonzero;"/>
        </g>
        <g>
            <path d="M50.2,48L43,48L43,37C43,34.4 43,31 39.3,31C35.6,31 35.1,33.9 35.1,36.8L35.1,48L28.1,48L28.1,25.3L34.9,25.3L34.9,28.4L35,28.4C35.9,26.6 38.2,24.7 41.7,24.7C48.8,24.7 50.2,29.4 50.2,35.5L50.2,48Z" style="fill:white;fill-rule:nonzero;"/>
        </g>
    </g>
</svg>
