<svg width="36" height="36" viewBox="0 0 36 36" fill="none" xmlns="http://www.w3.org/2000/svg">
<path d="M18 0C27.9563 0 36 8.04375 36 18C36 27.9563 27.9563 36 18 36C8.04375 36 0 27.9563 0 18C0 8.04375 8.04375 0 18 0Z" fill="#009BD8"/>
<path d="M13.3277 14.2296H9.33398V26.9983H13.3277V14.2296Z" fill="white"/>
<path d="M11.3063 12.4875C10.0125 12.4875 9 11.475 9 10.1813C9 8.8875 10.0125 7.875 11.3063 7.875C12.6 7.875 13.6125 8.8875 13.6125 10.1813C13.6125 11.475 12.5438 12.4875 11.3063 12.4875Z" fill="white"/>
<path d="M28.234 27.0017H24.184V20.8142C24.184 19.3517 24.184 17.4392 22.1027 17.4392C20.0215 17.4392 19.7402 19.0704 19.7402 20.7017V27.0017H15.8027V14.2329H19.6277V15.9767H19.684C20.1902 14.9642 21.484 13.8954 23.4527 13.8954C27.4465 13.8954 28.234 16.5392 28.234 19.9704V27.0017Z" fill="white"/>
</svg>