<?xml version="1.0" encoding="UTF-8" standalone="no"?>
<!DOCTYPE svg PUBLIC "-//W3C//DTD SVG 1.1//EN" "http://www.w3.org/Graphics/SVG/1.1/DTD/svg11.dtd">
<svg width="100%" height="100%" viewBox="0 0 1116 833" version="1.1" xmlns="http://www.w3.org/2000/svg" xmlns:xlink="http://www.w3.org/1999/xlink" xml:space="preserve" xmlns:serif="http://www.serif.com/" style="fill-rule:evenodd;clip-rule:evenodd;stroke-miterlimit:10;">
    <path d="M389.957,255.282L533.957,255.282" style="fill:none;fill-rule:nonzero;stroke:black;stroke-width:2px;"/>
    <g transform="matrix(0.357029,-0.934093,0.934093,0.357029,-296.297,483.904)">
        <ellipse cx="248.867" cy="443.498" rx="39.5" ry="12.4"/>
    </g>
    <g transform="matrix(1,0,0,1,-42.0431,-33.7182)">
        <path d="M1153.38,543.014C1169.04,659.603 1147.71,776.319 1039.21,821.767C930.707,867.216 805.904,816.101 760.456,707.599C715.007,599.096 822.24,534.175 874.624,428.845C981.001,214.952 1104.73,180.95 1153.38,543.014Z" style="fill:rgb(199,215,235);fill-rule:nonzero;"/>
    </g>
    <ellipse cx="916" cy="794.436" rx="170" ry="23.127" style="fill:rgb(64,64,64);"/>
    <g transform="matrix(-0.266436,-0.963853,0.963853,-0.266436,313.594,1787.21)">
        <rect x="858.752" y="753.632" width="24" height="43"/>
    </g>
    <g transform="matrix(0.963853,-0.266436,0.266436,0.963853,-218.606,219.344)">
        <ellipse cx="844.359" cy="777.24" rx="7.5" ry="20"/>
    </g>
    <g transform="matrix(0.134313,-0.990939,0.990939,0.134313,111.823,1518.55)">
        <ellipse cx="965.361" cy="688.069" rx="39.5" ry="12.4"/>
    </g>
    <circle cx="915.585" cy="728.299" r="79"/>
    <g transform="matrix(-0.266436,-0.963853,0.963853,-0.266436,327.088,1769.48)">
        <rect x="858.752" y="739.632" width="24" height="43"/>
    </g>
    <g transform="matrix(0.963853,-0.266436,0.266436,0.963853,-214.876,218.838)">
        <ellipse cx="844.359" cy="763.24" rx="7.5" ry="20"/>
    </g>
    <circle cx="936.329" cy="683.043" r="27" style="fill:white;"/>
    <circle cx="944.963" cy="671.116" r="9"/>
    <g transform="matrix(1,0,0,1,-42.0431,-33.7182)">
        <path d="M1048.86,816.306C1078.09,814.843 1100.48,787.498 1098.87,755.23C1097.25,722.961 1072.24,697.989 1043.01,699.452C1013.77,700.915 1009.19,723.864 1010.8,756.133C1012.42,788.401 1019.62,817.769 1048.86,816.306Z" style="fill:rgb(0,155,216);fill-rule:nonzero;"/>
    </g>
    <g transform="matrix(1,0,0,1,-42.0431,-33.7182)">
        <path d="M925.341,728.592C924.859,728.631 924.377,728.65 923.894,728.65C914.019,728.65 905.894,720.525 905.894,710.65C905.894,701.324 913.141,693.464 922.437,692.709C932.345,691.907 935.048,699.774 935.85,709.683C936.652,719.591 935.25,727.79 925.341,728.592Z" style="fill:white;fill-rule:nonzero;"/>
    </g>
    <path d="M49.464,361.025L491.957,361.025L560.56,394.447L669.866,447.699L741.334,313.887L943.574,313.887" style="fill:none;fill-rule:nonzero;stroke:black;stroke-width:2px;"/>
    <circle cx="222.811" cy="375.025" r="13.685" style="fill:rgb(0,155,216);"/>
    <circle cx="350.541" cy="361.025" r="13.685" style="fill:rgb(0,155,216);"/>
    <circle cx="560.384" cy="394.478" r="13.685" style="fill:rgb(0,155,216);"/>
    <circle cx="855.379" cy="313.887" r="13.685" style="fill:rgb(0,155,216);"/>
    <circle cx="712.443" cy="367.108" r="13.685" style="fill:rgb(0,155,216);"/>
    <circle cx="427.576" cy="581.441" r="14.756" style="stroke:rgb(63,61,86);stroke-width:2px;"/>
    <ellipse cx="170" cy="809.436" rx="170" ry="23.127" style="fill:rgb(64,64,64);stroke:black;stroke-width:1px;stroke-linejoin:round;stroke-miterlimit:2;"/>
    <circle cx="160.805" cy="696.436" r="79"/>
    <rect x="124.805" y="758.436" width="24" height="43"/>
    <rect x="172.805" y="758.436" width="24" height="43"/>
    <ellipse cx="144.805" cy="801.936" rx="20" ry="7.5"/>
    <ellipse cx="192.805" cy="800.936" rx="20" ry="7.5"/>
    <circle cx="162.805" cy="676.436" r="27" style="fill:white;"/>
    <circle cx="162.805" cy="676.436" r="9"/>
    <g transform="matrix(1,0,0,1,-42.0431,-33.7182)">
        <path d="M126.215,656.687C119.836,628.119 140.227,599.253 171.759,592.212C203.291,585.171 234.024,602.622 240.403,631.19C246.782,659.757 225.884,670.293 194.352,677.334C162.82,684.375 132.594,685.254 126.215,656.687Z" style="fill:rgb(0,155,216);fill-rule:nonzero;"/>
    </g>
    <circle cx="133.805" cy="469.436" r="79" style="stroke:black;stroke-width:1px;stroke-linejoin:round;stroke-miterlimit:2;"/>
    <rect x="97.805" y="531.436" width="24" height="43" style="stroke:black;stroke-width:1px;stroke-linejoin:round;stroke-miterlimit:2;"/>
    <rect x="145.805" y="531.436" width="24" height="43" style="stroke:black;stroke-width:1px;stroke-linejoin:round;stroke-miterlimit:2;"/>
    <ellipse cx="117.805" cy="574.936" rx="20" ry="7.5" style="stroke:black;stroke-width:1px;stroke-linejoin:round;stroke-miterlimit:2;"/>
    <ellipse cx="165.805" cy="573.936" rx="20" ry="7.5" style="fill:rgb(47,46,65);stroke:black;stroke-width:1px;stroke-linejoin:round;stroke-miterlimit:2;"/>
    <circle cx="135.805" cy="449.436" r="27" style="fill:white;"/>
    <circle cx="135.805" cy="449.436" r="9" style="fill:rgb(63,61,86);stroke:black;stroke-width:1px;stroke-linejoin:round;stroke-miterlimit:2;"/>
    <g transform="matrix(1,0,0,1,-42.0431,-33.7182)">
        <path d="M99.215,429.687C92.836,401.119 113.227,372.253 144.759,365.212C176.291,358.171 207.024,375.622 213.403,404.19C219.782,432.757 198.884,443.294 167.352,450.334C135.82,457.375 105.594,458.254 99.215,429.687Z" style="fill:rgb(0,155,216);fill-rule:nonzero;"/>
    </g>
    <g transform="matrix(0.428529,-0.903528,0.903528,0.428529,-413.895,311.359)">
        <ellipse cx="86.867" cy="466.498" rx="12.4" ry="39.5" style="fill:rgb(47,46,65);stroke:black;stroke-width:1px;stroke-linejoin:round;stroke-miterlimit:2;"/>
    </g>
    <g transform="matrix(1,0,0,1,-42.0431,-33.7182)">
        <path d="M137.043,531.655C137.043,539.387 156.952,554.655 179.043,554.655C201.134,554.655 221.848,532.887 221.848,525.155C221.848,517.423 201.134,526.655 179.043,526.655C156.952,526.655 137.043,523.923 137.043,531.655Z" style="fill:white;fill-rule:nonzero;"/>
    </g>
    <rect x="835.474" y="564.71" width="126.129" height="64.161" style="fill:rgb(0,155,216);"/>
    <rect x="825.603" y="575.129" width="126.129" height="64.161" style="fill:none;stroke:black;stroke-width:2px;"/>
    <rect x="226.603" y="199" width="36" height="36" style="fill:rgb(206,75,22);"/>
    <rect x="217.603" y="187" width="36" height="36" style="fill:none;stroke:black;stroke-width:2px;"/>
    <circle cx="906.052" cy="189.47" r="79"/>
    <g transform="matrix(-0.98401,0.17813,-0.17813,-0.98401,1968.98,387.878)">
        <rect x="974.585" y="279.578" width="24" height="43"/>
    </g>
    <g transform="matrix(-0.984006,0.178133,-0.178133,-0.984006,1876.79,413.255)">
        <rect x="927.353" y="288.128" width="24" height="43"/>
    </g>
    <g transform="matrix(0.763108,-0.646271,0.646271,0.763108,-36.7996,652.792)">
        <ellipse cx="939.065" cy="336.103" rx="20" ry="7.5"/>
    </g>
    <g transform="matrix(0.763108,-0.646271,0.646271,0.763108,-20.4329,680.698)">
        <ellipse cx="985.313" cy="327.731" rx="20" ry="7.5"/>
    </g>
    <circle cx="900.521" cy="170.146" r="27" style="fill:white;"/>
    <circle cx="889.425" cy="160.468" r="9"/>
    <g transform="matrix(1,0,0,1,-42.0431,-33.7182)">
        <path d="M1010.42,137.245C1011.6,107.998 986.396,83.225 954.114,81.914C921.832,80.603 894.7,103.249 893.512,132.496C892.324,161.743 914.764,168.388 947.046,169.7C979.328,171.011 1009.23,166.492 1010.42,137.245Z" style="fill:rgb(0,155,216);fill-rule:nonzero;"/>
    </g>
    <g transform="matrix(0.223422,-0.974722,0.974722,0.223422,434.061,981.455)">
        <ellipse cx="875.15" cy="208.796" rx="12.4" ry="39.5"/>
    </g>
    <g transform="matrix(0.223422,-0.974722,0.974722,0.223422,529.351,1152.64)">
        <ellipse cx="1030.22" cy="234.584" rx="12.4" ry="39.5"/>
    </g>
    <g transform="matrix(1,0,0,1,-42.0431,-33.7182)">
        <path d="M969.793,254.321C969.984,255.379 970.08,256.452 970.08,257.528C970.08,267.402 961.955,275.528 952.08,275.528C943.411,275.528 935.913,269.265 934.368,260.734C932.597,250.952 940.161,247.49 949.943,245.72C959.725,243.949 968.022,244.539 969.793,254.321Z" style="fill:white;fill-rule:nonzero;"/>
    </g>
    <path d="M712.603,99L803.603,169" style="fill:none;fill-rule:nonzero;stroke:black;stroke-width:2px;"/>
    <circle cx="669.603" cy="68" r="68" style="fill:rgb(206,75,22);"/>
    <g transform="matrix(0.134313,-0.990939,0.990939,0.134313,67.553,1505.42)">
        <ellipse cx="935.71" cy="706.84" rx="39.5" ry="12.4"/>
    </g>
    <circle cx="68.811" cy="786.025" r="13.685" style="fill:rgb(0,155,216);"/>
    <rect x="256.603" y="770" width="36" height="36" style="fill:rgb(206,75,22);"/>
    <circle cx="256.811" cy="794.025" r="13.685" style="fill:rgb(0,155,216);"/>
    <circle cx="461.957" cy="255.025" r="13.685" style="fill:rgb(0,155,216);"/>
    <circle cx="727.721" cy="679.252" r="6.535" style="fill:rgb(206,75,22);"/>
    <path d="M759.739,787.725L759.739,713.313" style="fill:none;fill-rule:nonzero;stroke:rgb(63,61,86);stroke-width:2px;"/>
    <circle cx="759.739" cy="713.313" r="10.523" style="fill:rgb(64,64,64);"/>
    <g transform="matrix(1,0,0,1,-42.0431,-33.7182)">
        <path d="M801.782,792.893C801.782,792.893 800.279,760.561 769.462,764.319" style="fill:rgb(64,64,64);fill-rule:nonzero;"/>
    </g>
</svg>
